<?xml version="1.0" encoding="utf-8"?>
<!-- Generator: Adobe Illustrator 26.0.2, SVG Export Plug-In . SVG Version: 6.00 Build 0)  -->
<svg version="1.1" id="Layer_1" xmlns="http://www.w3.org/2000/svg" xmlns:xlink="http://www.w3.org/1999/xlink" x="0px" y="0px"
	 viewBox="0 0 1440 1443" style="enable-background:new 0 0 1440 1443;" xml:space="preserve">
<style type="text/css">
	.st0{fill-rule:evenodd;clip-rule:evenodd;}
	.st1{fill:none;stroke:#FFDF37;stroke-width:50;}
	.st2{fill-rule:evenodd;clip-rule:evenodd;fill:#FFDF37;}
	.st3{fill:none;stroke:#FF4444;stroke-width:35;stroke-linejoin:round;}
	.st4{fill:none;stroke:#FFDF37;stroke-width:35;stroke-linecap:round;}
	.st5{fill:none;stroke:#FF4444;stroke-width:18;stroke-linecap:round;}
	.st6{fill:none;stroke:#FF4444;stroke-width:35;stroke-linecap:round;}
	.st7{fill:none;stroke:#FFDF37;stroke-width:10;}
	.st8{fill:none;stroke:#FF4444;stroke-width:10;}
	.st9{fill:#FFDF37;}
	.st10{fill:#FF4444;}
	.st11{fill-rule:evenodd;clip-rule:evenodd;fill:#FF4444;}
</style>
<path class="st0" d="M1181.3,293.5c-211.4,26-361.7,218.4-335.8,429.7c26,211.4,218.4,361.7,429.7,335.7
	C1486.7,1033,1637,840.6,1611,629.2C1585.1,417.8,1392.7,267.5,1181.3,293.5z M835.6,724.4C809,507.5,963.2,310.2,1180.1,283.5
	c216.9-26.6,414.2,127.6,440.9,344.5c26.6,216.9-127.6,414.3-344.4,440.9C1059.6,1095.5,862.2,941.3,835.6,724.4z"/>
<circle class="st1" cx="1228.5" cy="675.8" r="361.5"/>
<path class="st2" d="M1251.4,300.7l-19.9,367.2l98-354.5l-96.3,355l170-326.4l-168.4,327.3l234.6-284.1l-233.1,285.2l288.9-229.3
	l-287.7,230.8L1568,507.3l-329.7,166.2l357.7-92.6l-357.3,94.4l369.3-16.6l-369.2,18.4l364.8,60.2L1238.6,679l344.3,134.3
	l-344.9-132.5l308.7,202.5l-309.8-201l259.7,261.9l-261-260.6l199.3,309.8L1234,684.5l130.2,344.2l-131.9-343.6l55.4,363.6
	l-57.2-363.3l-21.8,367.1l19.9-367.2l-98.1,354.5l96.3-355l-170,326.4L1225.1,684L990.5,968.1l233.1-285.2L934.8,912.2l287.7-230.8
	L892,846l329.7-166.2l-357.7,92.6l357.3-94.4l-369.3,16.6l369.2-18.4L856.3,616l365.1,58.3L877.1,540l344.9,132.5L913.4,470.1
	l309.7,201L963.4,409.1l261,260.6l-199.3-309.8L1226,668.7l-130.2-344.2l131.9,343.6l-55.4-363.6l57.2,363.3L1251.4,300.7z"/>
<path class="st2" d="M287.7,679.6L-48.3,829L312,754.9l-359.9,75.9l368,2.8l-368-0.9l359.7,79.5l-360.1-77.7l335.7,152.8L-49,836.2
	l297,219.4L-50.1,837.7L195.2,1114L-51.5,838.9l182.9,321.3L-53.1,839.8L59.4,1192L-54.9,840.4l37.2,367.7l-39.1-367.5l-39.7,367.1
	l37.9-367.3l-114.9,350.5l113.2-351l-185.1,318.5l183.5-319.5l-247.2,272.7l245.8-273.9l-298.5,214.9l297.4-216.4l-336.7,147.7
	l336-149.4l-360.3,74.1l359.9-75.9l-368-2.8l368,0.9l-359.7-79.5l360.1,77.7l-335.7-152.8l336.5,151.1l-297-219.4l298.1,217.9
	l-245.3-276.4l246.7,275.1l-182.9-321.3l184.5,320.4l-112.5-352.2L-58.5,823l-37.2-367.7l39.1,367.5L-17,455.7L-54.8,823L60.1,472.6
	l-113.2,351L132,505.1L-51.5,824.5l247.2-272.7L-50.1,825.8l298.5-214.9L-49,827.3L287.7,679.6z"/>
<path class="st0" d="M-93.9,453.5c-211.4,26-361.7,218.4-335.8,429.7c26,211.4,218.4,361.7,429.7,335.8
	c211.4-26,361.7-218.4,335.7-429.7C309.8,577.8,117.4,427.5-93.9,453.5z M-439.6,884.4C-466.2,667.6-312,470.2-95.2,443.6
	C121.7,416.9,319.1,571.1,345.7,788c26.6,216.9-127.6,414.3-344.5,440.9C-215.6,1255.5-413,1101.3-439.6,884.4z"/>
<circle class="st1" cx="-46.7" cy="835.8" r="361.2"/>
<path class="st3" d="M531,762.4L279.1,133.2l705-86.6l24.4,67.5L531,762.4z"/>
<path class="st4" d="M984.5,47.6l-25.8-82.9"/>
<path class="st5" d="M799,687c0-243,197.2-440,440.5-440"/>
<path class="st5" d="M-173.7,430.2C60.6,365.6,302.9,503.4,367.6,738"/>
<path class="st4" d="M1228.6,675l-221.3-564l-22.4-63.9"/>
<path class="st6" d="M236.2,39.4l98.7,231.2"/>
<path class="st6" d="M169.5,47.6l115.5-20l33.5-5.1"/>
<path class="st4" d="M1041.9,37.4c20.5-2.5,32.2-2.3,52.4-6.4l0,0c73.3-15,31.4-100.3-42.3-87.4c-28.6,5-59.6,10.1-94.5,15.5"/>
<path class="st3" d="M322.6,241.9l208,520.4l-598,73.4L322.6,241.9z"/>
<path class="st7" d="M610.7,744.2c6,48.8-28.7,93.2-77.5,99.2c-48.8,6-93.2-28.7-99.2-77.5c-6-48.8,28.7-93.2,77.5-99.2
	C560.3,660.7,604.7,695.4,610.7,744.2z"/>
<path class="st8" d="M-105.4,803.7c-6.2-50.6,31.2-96,82.1-99.6l539.4-38c47.2-3.3,88.8,30.9,94.6,77.9l0.3,2.5
	c5.6,45.7-24.5,88.1-69.5,97.8l-530,114.5c-51.2,11.1-100.8-24.2-107.1-76.1L-105.4,803.7z"/>
<path class="st9" d="M379.4,156.1c-0.8-6.3,3.7-12.1,10.1-12.9l210.3-25.8c6.3-0.8,12.1,3.7,12.9,10.1l3,24.7
	c3.9,31.7-18.7,60.6-50.4,64.5L401,236.9c-6.3,0.8-12.1-3.7-12.9-10.1L379.4,156.1z"/>
<rect x="400" y="99.7" transform="matrix(0.9925 -0.1219 0.1219 0.9925 -13.4252 51.1554)" class="st9" width="23" height="71.3"/>
<rect x="557.3" y="80.3" transform="matrix(0.9925 -0.1219 0.1219 0.9925 -9.8648 70.1761)" class="st9" width="23" height="70.8"/>
<path class="st10" d="M379.4,156.1c-0.8-6.3,3.7-12.1,10.1-12.9l211.4-26c5.7-0.7,10.9,3.4,11.6,9.1l0.6,4.6
	c1,8.2-4.9,15.8-13.1,16.8l-212.6,26.1c-3.2,0.4-6.1-1.9-6.5-5L379.4,156.1z"/>
<path class="st11" d="M863,157.4c2.1-2.8,6.1-3.4,8.9-1.3l44.4,33c2.8,2.1,3.4,6.1,1.3,8.9l-6.7,9l-54.6-40.6L863,157.4z M911,207
	c-7.8-0.9-13.6,6.9-10.5,14.1l-61.9,83.2c-5.6,7.5-16.3,9.1-23.8,3.5l-27.3-20.3c-7.5-5.6-9.1-16.3-3.5-23.8l61.9-83.2l0,0
	c7.8,0.9,13.6-6.9,10.5-14.1L911,207z"/>
<path class="st0" d="M899.6,150.5c-0.6,0.8-0.4,1.9,0.4,2.5l0,0l-7.3,9.9l11.3,8.4l7.3-9.9c0.8,0.6,1.9,0.4,2.5-0.4
	c0.6-0.8,0.4-1.9-0.4-2.5l-11.3-8.4C901.3,149.6,900.2,149.8,899.6,150.5z"/>
<path class="st2" d="M883.8,149.9c-0.7-0.5-1.6-0.6-2.4-0.1c-0.3,0.2-0.5,0.4-0.7,0.6l-1.6-1.2c-1.6-1.2-3.7-1.1-5.2,0.1l-1.1,0.9
	c-2.1,1.8-2.1,5.1,0.2,6.7l42.4,31.5c2.2,1.7,5.4,0.8,6.5-1.8l0.5-1.3c0.8-1.8,0.2-3.9-1.4-5.1l-1.6-1.2c0.2-0.2,0.3-0.5,0.4-0.8
	c0.2-0.8-0.1-1.7-0.8-2.2L883.8,149.9z"/>
<path class="st2" d="M200.2,261.1c2-2.9,6-3.7,8.9-1.7l45.8,31c2.9,2,3.7,6,1.7,8.9l-6.3,9.3l-56.3-38.2L200.2,261.1z M250.3,308.5
	c-7.8-0.6-13.3,7.5-9.9,14.5l-58.2,85.9c-5.3,7.8-15.9,9.8-23.7,4.5l-28.1-19.1c-7.8-5.3-9.8-15.9-4.5-23.7l58.2-85.9l0,0
	c7.8,0.6,13.3-7.5,9.9-14.5L250.3,308.5z"/>
<path class="st0" d="M236.5,252.6c-0.5,0.8-0.3,1.9,0.5,2.4l0,0l-6.9,10.2l11.6,7.9l6.9-10.2c0.8,0.5,1.9,0.3,2.4-0.5
	c0.5-0.8,0.3-1.9-0.5-2.4l-11.6-7.9C238.1,251.6,237,251.8,236.5,252.6z"/>
<path class="st11" d="M220.6,252.6c-0.7-0.5-1.7-0.5-2.4,0c-0.3,0.2-0.5,0.4-0.7,0.6l-1.6-1.1c-1.6-1.1-3.8-0.9-5.2,0.4l-1,0.9
	c-2.1,1.9-1.8,5.1,0.5,6.7l43.7,29.6c2.3,1.6,5.4,0.5,6.4-2.1l0.5-1.3c0.7-1.8,0-3.9-1.6-5l-1.6-1.1c0.2-0.2,0.3-0.5,0.3-0.8
	c0.2-0.9-0.2-1.7-0.9-2.2L220.6,252.6z"/>
</svg>
