<?xml version="1.0" encoding="utf-8"?>
<!-- Generator: Adobe Illustrator 26.0.2, SVG Export Plug-In . SVG Version: 6.00 Build 0)  -->
<svg version="1.1" id="Layer_1" xmlns="http://www.w3.org/2000/svg" xmlns:xlink="http://www.w3.org/1999/xlink" x="0px" y="0px"
	 viewBox="0 0 1131 969" style="enable-background:new 0 0 1131 969;" xml:space="preserve">
<style type="text/css">
	.st0{fill-rule:evenodd;clip-rule:evenodd;fill:#FFD913;}
	.st1{fill-rule:evenodd;clip-rule:evenodd;stroke:#000000;stroke-width:7.261;}
	.st2{fill:none;stroke:#FFD913;stroke-width:46.4704;}
	.st3{fill:none;}
	.st4{enable-background:new    ;}
	.st5{fill:#FFFFFF;}
	.st6{font-family:'ArialMT';}
	.st7{font-size:12px;}
	.st8{fill:none;stroke:#FF4444;stroke-width:25.4135;stroke-linejoin:round;}
	.st9{fill:none;stroke:#FF4444;stroke-width:45.7443;stroke-linejoin:round;}
	.st10{fill:none;stroke:#FF4444;stroke-width:25.4135;stroke-linecap:round;}
</style>
<path class="st0" d="M790.1,273.8l-7.9,238.6L841,280.9l-57.6,231.8l105.9-214.2L784.5,513.2l148.4-187.6L785.4,514l184.4-152.8
	L786.2,514.9l212.3-111.3L786.7,516l231-65L787,517.2l239.6-15.8l-239.5,17l237.7,34.1L787,519.6l225.4,82.5l-225.8-81.3L989.8,648
	L785.9,521.8l172.2,166.5L785,522.7l133.7,198.4L784.1,523.2l89.3,221.7L783,523.7L824,759l-42.2-235.1l-9.1,238.6l7.9-238.6
	l-58.8,231.5l57.6-231.8L673.5,737.8L778.3,523L629.9,710.6l147.5-188.4L592.9,675.1l183.6-153.7L564.2,632.7L776,520.3l-231,65
	l230.7-66.2l-239.6,15.8l239.5-17l-237.7-34.1l237.8,32.9l-225.4-82.5l225.8,81.3L572.9,388.4l203.9,126.2L604.6,348.1l173.1,165.6
	L644,315.3L778.7,513l-89.3-221.7l90.4,221.2l-41-235.3L781,512.3L790.1,273.8z"/>
<path class="st0" d="M-35,372.8l-7.9,238.6l58.8-231.5l-57.6,231.8L64.2,397.5L-40.6,612.2l148.4-187.6L-39.7,613l184.4-152.8
	L-38.9,613.9l212.3-111.3L-38.4,615l231-65l-230.7,66.2l239.6-15.8l-239.5,17l237.7,34.1l-237.8-32.9l225.4,82.5l-225.8-81.3
	L164.7,747L-39.2,620.8L133,787.3L-40.1,621.7L93.6,820.1L-41,622.2l89.3,221.7l-90.4-221.2l41,235.3l-42.2-235.1l-9.1,238.6
	l7.9-238.6l-58.8,231.5l57.6-231.8l-105.9,214.2L-46.8,622l-148.4,187.6l147.5-188.4l-184.5,152.9l183.6-153.7l-212.3,111.3
	l211.8-112.4l-231,65l230.7-66.2L-289,633.9l239.5-17l-237.7-34.1l237.8,32.9l-225.4-82.5L-49,614.5l-203.2-127.1l203.9,126.2
	l-172.2-166.5l173.1,165.6l-133.7-198.4L-46.4,612l-89.3-221.7l90.4,221.2l-41-235.3l42.2,235.1L-35,372.8z"/>
<path class="st1" d="M746.8,250.5c-148.1,18.2-253.4,153-235.2,301c18.2,148.1,153,253.4,301,235.2c148.1-18.2,253.4-153,235.2-301
	C1029.6,337.6,894.8,232.3,746.8,250.5z M504.6,552.4C486,400.5,594,262.2,745.9,243.6s290.2,89.4,308.8,241.3
	c18.7,151.9-89.4,290.2-241.3,308.8S523.3,704.3,504.6,552.4z"/>
<circle class="st2" cx="779.7" cy="518.4" r="248.5"/>
<path class="st1" d="M-76.5,350.2c-148.1,18.2-253.4,153-235.2,301c18.2,148.1,153,253.4,301,235.2c148.1-18.2,253.4-153,235.2-301
	C206.3,437.3,71.5,332-76.5,350.2z M-318.7,652.1c-18.7-151.9,89.4-290.2,241.3-308.8c151.9-18.7,290.2,89.4,308.8,241.3
	C250.1,736.5,142,874.8-9.9,893.4C-161.8,912-300,804-318.7,652.1z"/>
<circle class="st2" cx="-43.6" cy="618" r="248.5"/>
<path id="SVGID_x5F_1_x5F_" class="st3" d="M-146.4,406c116.6-56.8,257.2-8.3,314,108.4s8.3,257.2-108.4,314
	c-116.6,56.8-257.2,8.3-314-108.4S-263,462.8-146.4,406z"/>
<g class="st4">
	<path class="st5" d="M-70.6,353.2l15.9-1.4l0.6,7.2l-15.4,1.3c-0.6,0-1,0.2-1.3,0.5c-0.3,0.3-0.4,0.7-0.3,1.1
		c0.1,0.8,0.6,1.3,1.5,1.5l10.9,1.5c2.3,0.3,4.2,1.2,5.5,2.7c1.3,1.5,2.1,3.2,2.3,5.2c0.2,2.5-0.4,4.7-1.9,6.6
		c-1.5,1.9-3.7,3-6.6,3.3l-16.5,1.4l-0.6-7.2l16.3-1.4c0.5,0,1-0.3,1.3-0.6c0.3-0.4,0.4-0.8,0.4-1.2c-0.1-0.9-0.6-1.4-1.7-1.5
		l-10.9-1.6c-2.3-0.3-4.2-1.2-5.5-2.7c-1.3-1.5-2.1-3.2-2.3-5.1c-0.2-2.4,0.4-4.6,1.9-6.4C-75.7,354.5-73.5,353.4-70.6,353.2z"/>
</g>
<g class="st4">
	<path class="st5" d="M-29.8,352.2c3,0.1,5.5,1.2,7.5,3.4c2,2.1,2.9,4.7,2.8,7.8c-0.1,3.1-1.3,5.7-3.4,7.6c-2.2,1.9-4.7,2.9-7.7,2.7
		l-8.2-0.3l-0.4,8.9l-7.5-0.3l1.2-30.4L-29.8,352.2z M-38.6,366.3l7.5,0.3c1.1,0,2-0.3,2.7-0.9s1.2-1.5,1.2-2.6c0-1-0.3-1.9-1-2.6
		c-0.7-0.7-1.6-1-2.6-1.1l-7.5-0.3L-38.6,366.3z"/>
</g>
<g class="st4">
	<path class="st5" d="M6.4,387.3l-23.4-3.8l4.9-30l23.4,3.8l-1.2,7.2l-16-2.6l-0.7,4.3l13.7,2.3l-1.1,6.7l-13.7-2.3l-0.8,4.7l16,2.6
		L6.4,387.3z"/>
</g>
<g class="st4">
	<path class="st5" d="M32.9,394.8l-22.8-6.5l8.4-29.2l22.8,6.5l-2,7l-15.6-4.5l-1.2,4.2l13.4,3.8l-1.9,6.5l-13.4-3.8l-1.3,4.5
		l15.6,4.5L32.9,394.8z"/>
</g>
<g class="st4">
	<path class="st5" d="M36.7,396l12-27.9l12,5.2c4.2,1.8,7.1,4.6,8.7,8.4c1.6,3.8,1.6,7.7-0.2,11.7l-0.1,0.1c-1.7,4-4.5,6.8-8.4,8.2
		c-3.9,1.4-7.9,1.3-12.1-0.5L36.7,396z M57.7,379.9l-5-2.2l-6.3,14.6l5,2.2c2.2,1,4.4,1.1,6.4,0.4s3.5-2.2,4.4-4.3l0.1-0.1
		c0.9-2.2,1-4.2,0.1-6.1C61.6,382.3,60,380.9,57.7,379.9z"/>
</g>
<text class="st6 st7"> </text>
<path class="st8" d="M295,577.8L138,210.4l478.1-81.8"/>
<path class="st9" d="M288.1,569.9l355.8-374.1"/>
<path class="st10" d="M616.4,129.2l-17.1-51.3"/>
<path class="st10" d="M780.3,517.1L631.6,168.5l-15-39.5"/>
<path class="st10" d="M115.8,156.4l40.4,97.2"/>
<path class="st10" d="M57.4,162.4l112-21.4"/>
<path class="st10" d="M656.4,122.4c14.2-1.7,22.4-1.7,36.5-4.5l0,0c47.2-9.2,22.9-62.7-24.5-54.7c-21,3.6-43.9,7.2-69.8,11.2"/>
<path class="st8" d="M154.4,248.6l140.3,329.1L-43,619.2L154.4,248.6z"/>
<path id="SVGID_x5F_00000056416759269917070990000004715672447728723384_x5F_" class="st3" d="M823.2,748.8
	c-127.3,24-249.9-59.7-273.9-187s59.7-249.9,187-273.9s249.9,59.7,273.9,187C1034.1,602.1,950.4,724.8,823.2,748.8z"/>
<g class="st4">
	<path class="st5" d="M736.3,779.7l-15.6-2.9l1.3-7.1l15.1,2.8c0.6,0.1,1,0,1.3-0.2c0.3-0.2,0.5-0.5,0.6-0.9
		c0.2-0.8-0.2-1.5-1.1-1.9l-10.1-4.3c-2.2-0.9-3.7-2.3-4.6-4.1c-0.9-1.8-1.2-3.6-0.8-5.6c0.4-2.4,1.6-4.4,3.6-5.8
		c2-1.5,4.4-1.9,7.3-1.4l16.3,3l-1.3,7.1l-16-2.9c-0.5-0.1-1,0-1.4,0.3c-0.4,0.3-0.6,0.6-0.7,1c-0.2,0.9,0.3,1.5,1.2,1.9l10.1,4.4
		c2.2,0.9,3.7,2.3,4.6,4.1c0.9,1.8,1.2,3.6,0.8,5.5c-0.4,2.4-1.6,4.3-3.5,5.7C741.5,779.8,739.1,780.2,736.3,779.7z"/>
</g>
<g class="st4">
	<path class="st5" d="M696.8,769.9c-2.9-0.9-5-2.6-6.3-5.2c-1.3-2.6-1.6-5.3-0.6-8.2c0.9-3,2.7-5.1,5.3-6.4c2.6-1.3,5.3-1.5,8.1-0.6
		l7.8,2.5l2.7-8.5l7.1,2.3l-9.2,28.9L696.8,769.9z M708.9,758.7l-7.2-2.3c-1-0.3-2-0.3-2.8,0.1c-0.9,0.4-1.5,1.2-1.8,2.2
		c-0.3,1-0.2,1.9,0.3,2.7c0.5,0.8,1.3,1.4,2.2,1.7l7.2,2.3L708.9,758.7z"/>
</g>
<g class="st4">
	<path class="st5" d="M671.2,726.6l21.5,9.8L680,764l-21.5-9.8l3-6.6l14.7,6.7l1.8-4l-12.6-5.8l2.8-6.2l12.6,5.8l2-4.3l-14.7-6.7
		L671.2,726.6z"/>
</g>
<g class="st4">
	<path class="st5" d="M647.5,712.4l20.2,12.3L652,750.6l-20.2-12.3l3.8-6.2l13.8,8.4l2.3-3.7l-11.9-7.2l3.5-5.8l11.9,7.2l2.4-4
		l-13.8-8.4L647.5,712.4z"/>
</g>
<g class="st4">
	<path class="st5" d="M644.3,710.3L625.4,734l-10.2-8.2c-3.6-2.8-5.6-6.3-6.2-10.4c-0.6-4.1,0.5-7.8,3.3-11.2l0.1-0.1
		c2.7-3.4,6.1-5.3,10.2-5.7c4.1-0.4,7.9,0.9,11.5,3.7L644.3,710.3z M619.7,720.3l4.3,3.4l9.9-12.4l-4.3-3.4c-1.9-1.5-3.9-2.2-6-2
		c-2.1,0.2-3.9,1.2-5.4,3l-0.1,0.1c-1.5,1.8-2.1,3.8-1.8,5.9S617.8,718.7,619.7,720.3z"/>
</g>
<text class="st6 st7"> </text>
<path id="SVGID_x5F_00000090268876410236617840000016777678173934531721_x5F_" class="st3" d="M736.2,287.9
	c127.3-24,249.9,59.7,273.9,187s-59.7,249.9-187,273.9s-249.9-59.7-273.9-187C525.3,434.6,609,311.9,736.2,287.9z"/>
<g class="st4">
	<path class="st5" d="M823.1,257l15.6,2.9l-1.3,7.1l-15.1-2.8c-0.6-0.1-1,0-1.3,0.2c-0.3,0.2-0.5,0.5-0.6,0.9
		c-0.2,0.8,0.2,1.5,1.1,1.9l10.1,4.3c2.2,0.9,3.7,2.3,4.6,4.1c0.9,1.8,1.2,3.6,0.8,5.6c-0.4,2.4-1.6,4.4-3.6,5.8
		c-2,1.5-4.4,1.9-7.3,1.4l-16.3-3l1.3-7.1l16,2.9c0.5,0.1,1,0,1.4-0.3c0.4-0.3,0.6-0.6,0.7-1c0.2-0.9-0.3-1.5-1.2-1.9l-10.1-4.4
		c-2.2-0.9-3.7-2.3-4.6-4.1c-0.9-1.8-1.2-3.6-0.8-5.5c0.4-2.4,1.6-4.3,3.5-5.7C817.9,256.9,820.3,256.5,823.1,257z"/>
</g>
<g class="st4">
	<path class="st5" d="M862.6,266.8c2.9,0.9,5,2.6,6.3,5.2c1.3,2.6,1.6,5.3,0.6,8.2c-0.9,3-2.7,5.1-5.3,6.4c-2.6,1.3-5.3,1.5-8.1,0.6
		l-7.8-2.5l-2.7,8.5l-7.1-2.3l9.2-28.9L862.6,266.8z M850.5,278l7.2,2.3c1,0.3,2,0.3,2.8-0.1c0.9-0.4,1.5-1.2,1.8-2.2
		c0.3-1,0.2-1.9-0.3-2.7c-0.5-0.8-1.3-1.4-2.2-1.7l-7.2-2.3L850.5,278z"/>
</g>
<g class="st4">
	<path class="st5" d="M888.2,310.1l-21.5-9.8l12.6-27.6l21.5,9.8l-3,6.6l-14.7-6.7l-1.8,4l12.6,5.8l-2.8,6.2l-12.6-5.8l-2,4.3
		l14.7,6.7L888.2,310.1z"/>
</g>
<g class="st4">
	<path class="st5" d="M911.9,324.3L891.7,312l15.8-25.9l20.2,12.3l-3.8,6.2l-13.8-8.4l-2.3,3.7l11.9,7.2l-3.5,5.8l-11.9-7.2l-2.4,4
		l13.8,8.4L911.9,324.3z"/>
</g>
<g class="st4">
	<path class="st5" d="M915.1,326.4l18.9-23.7l10.2,8.2c3.6,2.8,5.6,6.3,6.2,10.4c0.6,4.1-0.5,7.8-3.3,11.2l-0.1,0.1
		c-2.7,3.4-6.1,5.3-10.2,5.7c-4.1,0.4-7.9-0.9-11.5-3.7L915.1,326.4z M939.7,316.4l-4.3-3.4l-9.9,12.4l4.3,3.4c1.9,1.5,3.9,2.2,6,2
		c2.1-0.2,3.9-1.2,5.4-3l0.1-0.1c1.5-1.8,2.1-3.8,1.8-5.9C942.7,319.8,941.6,318,939.7,316.4z"/>
</g>
<text class="st6 st7"> </text>
</svg>
