<?xml version="1.0" encoding="utf-8"?>
<!-- Generator: Adobe Illustrator 26.0.2, SVG Export Plug-In . SVG Version: 6.00 Build 0)  -->
<svg version="1.1" id="Layer_1" xmlns="http://www.w3.org/2000/svg" xmlns:xlink="http://www.w3.org/1999/xlink" x="0px" y="0px"
	 viewBox="0 0 1131 969" style="enable-background:new 0 0 1131 969;" xml:space="preserve">
<style type="text/css">
	.st0{fill-rule:evenodd;clip-rule:evenodd;fill:#FFDF37;}
	.st1{fill-rule:evenodd;clip-rule:evenodd;stroke:#000000;stroke-width:7.261;}
	.st2{fill:none;stroke:#FFDF37;stroke-width:46.4704;}
	.st3{fill:none;}
	.st4{fill:none;stroke:#FF4444;stroke-width:25.4135;stroke-linejoin:round;}
	.st5{fill:none;stroke:#FF4444;stroke-width:45.7443;stroke-linejoin:round;}
	.st6{fill:none;stroke:#FF4444;stroke-width:25.4135;stroke-linecap:round;}
</style>
<path class="st0" d="M790.1,273.8l-7.9,238.6L841,280.9l-57.6,231.8l105.9-214.2L784.5,513.2l148.4-187.6L785.4,514l184.4-152.8
	L786.2,514.9l212.3-111.3L786.7,516l231-65L787,517.2l239.6-15.8l-239.5,17l237.7,34.1L787,519.6l225.4,82.5l-225.8-81.3L989.8,648
	L785.9,521.8l172.2,166.5L785,522.7l133.7,198.4L784.1,523.2l89.3,221.7L783,523.7L824,759l-42.2-235.1l-9.1,238.6l7.9-238.6
	l-58.8,231.5l57.6-231.8L673.5,737.8L778.3,523L629.9,710.6l147.5-188.4L592.9,675.1l183.6-153.7L564.2,632.7L776,520.3l-231,65
	l230.7-66.2l-239.6,15.8l239.5-17l-237.7-34.1l237.8,32.9l-225.4-82.5l225.8,81.3L572.9,388.4l203.9,126.2L604.6,348.1l173.1,165.6
	L644,315.3L778.7,513l-89.3-221.7l90.4,221.2l-41-235.3L781,512.3L790.1,273.8z"/>
<path class="st0" d="M-35,372.8l-7.9,238.6l58.8-231.5l-57.6,231.8L64.2,397.5L-40.6,612.2l148.4-187.6L-39.7,613l184.4-152.8
	L-38.9,613.9l212.3-111.3L-38.4,615l231-65l-230.7,66.2l239.6-15.8l-239.5,17l237.7,34.1l-237.8-32.9l225.4,82.5l-225.8-81.3
	L164.7,747L-39.2,620.8L133,787.3L-40.1,621.7L93.6,820.1L-41,622.2l89.3,221.7l-90.4-221.2l41,235.3l-42.2-235.1l-9.1,238.6
	l7.9-238.6l-58.8,231.5l57.6-231.8l-105.9,214.2L-46.8,622l-148.4,187.6l147.5-188.4l-184.5,152.9l183.6-153.7l-212.3,111.3
	l211.8-112.4l-231,65l230.7-66.2L-289,633.9l239.5-17l-237.7-34.1l237.8,32.9l-225.4-82.5L-49,614.5l-203.2-127.1l203.9,126.2
	l-172.2-166.5l173.1,165.6l-133.7-198.4L-46.4,612l-89.3-221.7l90.4,221.2l-41-235.3l42.2,235.1L-35,372.8z"/>
<path class="st1" d="M746.8,250.5c-148.1,18.2-253.4,153-235.2,301c18.2,148.1,153,253.4,301,235.2c148.1-18.2,253.4-153,235.2-301
	C1029.6,337.6,894.8,232.3,746.8,250.5z M504.6,552.4C486,400.5,594,262.2,745.9,243.6s290.2,89.4,308.8,241.3
	c18.7,151.9-89.4,290.2-241.3,308.8C661.5,812.3,523.3,704.3,504.6,552.4z"/>
<circle class="st2" cx="779.7" cy="518.4" r="248.5"/>
<path class="st1" d="M-76.5,350.2c-148.1,18.2-253.4,153-235.2,301c18.2,148.1,153,253.4,301,235.2c148.1-18.2,253.4-153,235.2-301
	C206.3,437.3,71.5,332-76.5,350.2z M-318.7,652.1c-18.7-151.9,89.4-290.2,241.3-308.8c151.9-18.7,290.2,89.4,308.8,241.3
	c18.7,151.9-89.4,290.2-241.3,308.8C-161.8,912-300,804-318.7,652.1z"/>
<circle class="st2" cx="-43.6" cy="618" r="248.5"/>
<path id="SVGID_x5F_1_x5F_" class="st3" d="M-146.4,406c116.6-56.8,257.2-8.3,314,108.4s8.3,257.2-108.4,314
	c-116.6,56.8-257.2,8.3-314-108.4S-263,462.8-146.4,406z"/>
<text><textPath  xlink:href="#SVGID_x5F_1_x5F_" startOffset="4.6297%">
<tspan  style="fill:#FFFFFF; font-family:'Nekst-Black'; font-size:45.3578px;">SPEED</tspan></textPath>
</text>
<path class="st4" d="M295,577.8L138,210.4l478.1-81.8"/>
<path class="st5" d="M288.1,569.9l355.8-374.1"/>
<path class="st6" d="M616.4,129.2l-17.1-51.3"/>
<path class="st6" d="M780.3,517.1L631.6,168.5l-15-39.5"/>
<path class="st6" d="M115.8,156.4l40.4,97.2"/>
<path class="st6" d="M57.4,162.4L169.4,141"/>
<path class="st6" d="M656.4,122.4c14.2-1.7,22.4-1.7,36.5-4.5l0,0c47.2-9.2,22.9-62.7-24.5-54.7c-21,3.6-43.9,7.2-69.8,11.2"/>
<path class="st4" d="M154.4,248.6l140.3,329.1L-43,619.2L154.4,248.6z"/>
<path id="SVGID_x5F_00000056416759269917070990000004715672447728723384_x5F_" class="st3" d="M823.2,748.8
	c-127.3,24-249.9-59.7-273.9-187c-24-127.3,59.7-249.9,187-273.9s249.9,59.7,273.9,187C1034.1,602.1,950.4,724.8,823.2,748.8z"/>
<text><textPath  xlink:href="#SVGID_x5F_00000056416759269917070990000004715672447728723384_x5F_" startOffset="4.6297%">
<tspan  style="fill:#FFFFFF; font-family:'Nekst-Black'; font-size:45.2817px;">SPEED</tspan></textPath>
</text>
<path id="SVGID_x5F_00000090268876410236617840000016777678173934531721_x5F_" class="st3" d="M736.2,287.9
	c127.3-24,249.9,59.7,273.9,187c24,127.3-59.7,249.9-187,273.9c-127.3,24-249.9-59.7-273.9-187C525.3,434.6,609,311.9,736.2,287.9z"
	/>
<text><textPath  xlink:href="#SVGID_x5F_00000090268876410236617840000016777678173934531721_x5F_" startOffset="4.6297%">
<tspan  style="fill:#FFFFFF; font-family:'Nekst-Black'; font-size:45.2817px;">SPEED</tspan></textPath>
</text>
</svg>
