<?xml version="1.0" encoding="utf-8"?>
<!-- Generator: Adobe Illustrator 26.0.2, SVG Export Plug-In . SVG Version: 6.00 Build 0)  -->
<svg version="1.1" id="Layer_1" xmlns="http://www.w3.org/2000/svg" xmlns:xlink="http://www.w3.org/1999/xlink" x="0px" y="0px"
	 viewBox="0 0 1170 895" style="enable-background:new 0 0 1170 895;" xml:space="preserve">
<style type="text/css">
	.st0{fill-rule:evenodd;clip-rule:evenodd;fill:#FF4444;}
	.st1{fill-rule:evenodd;clip-rule:evenodd;stroke:#000000;stroke-width:7.0847;}
	.st2{fill:none;stroke:#FF4444;stroke-width:41.5562;}
	.st3{fill-rule:evenodd;clip-rule:evenodd;stroke:#000000;stroke-width:7.102;}
	.st4{fill:none;stroke:#FFDF37;stroke-width:22.726;stroke-linejoin:round;}
	.st5{fill:none;stroke:#FFDF37;stroke-width:40.9069;stroke-linejoin:round;}
	.st6{fill:none;stroke:#FFDF37;stroke-width:22.726;stroke-linecap:round;}
	.st7{fill:none;}
	.st8{font-family:'ArialMT';}
	.st9{font-size:12px;}
	.st10{fill:#FFFFFF;}
	.st11{font-family:'Nekst-Black';}
	.st12{font-size:46.4735px;}
	.st13{fill:none;stroke:#FF4444;stroke-width:22.726;stroke-linecap:round;}
</style>
<path class="st0" d="M1075.6,219.6l-7.9,238.6l58.8-231.5l-57.6,231.8l105.9-214.2L1070,459l148.4-187.6l-147.5,188.4L1255.3,307
	l-183.6,153.7L1284,349.4l-211.8,112.4l231-65L1072.5,463l239.6-15.8l-239.5,17l237.7,34.1l-237.8-32.9l225.4,82.5l-225.8-81.3
	l203.2,127.2l-203.9-126.2l172.2,166.5l-173.1-165.6l133.7,198.4L1069.6,469l89.3,221.7l-90.4-221.2l41,235.3l-42.2-235.1
	l-9.1,238.6l7.9-238.6l-58.8,231.5l57.6-231.8L959,683.6l104.8-214.8L915.4,656.4L1062.9,468L878.4,620.9L1062,467.2L849.7,578.5
	l211.8-112.4l-231,65l230.7-66.2l-239.6,15.8l239.5-17l-237.7-34.1l237.8,32.9L835.8,380l225.8,81.3L858.4,334.2l203.9,126.2
	L890.1,293.9l173.1,165.6L929.5,261.1l134.7,197.7l-89.3-221.7l90.4,221.2l-41-235.3l42.2,235.1L1075.6,219.6z"/>
<path class="st0" d="M337.3,309.2l-5.4,238.7l56.4-232.1L333,548.2l103.7-215.3L334.1,548.7l146.5-189.2L335.1,549.4l182.8-154.7
	l-182,155.6l211.2-113.5L336.5,551.4L566.8,484l-230,68.5l239.4-18.3l-239.3,19.5l238,31.6l-238.2-30.4L563,635.1l-226.6-79
	L541,681.2L335.7,557.1l173.9,164.7L334.9,558l135.7,197L333.9,558.7l91.6,220.7l-92.7-220.3L376.2,794l-44.6-234.6L324.9,798
	l5.4-238.7L274,791.4L329.2,559L225.5,774.3l102.6-215.8L181.6,747.7l145.5-189.9L144.3,712.5l182-155.6L115.2,670.4l210.6-114.6
	L95.4,623.2l230-68.5L86,573l239.3-19.5l-238-31.6l238.2,30.4L99.3,472.2l226.6,79L121.3,426l205.2,124.1L152.6,385.5l174.8,163.8
	l-135.7-197l136.7,196.3l-91.6-220.7l92.7,220.3l-43.4-234.8L330.7,548L337.3,309.2z"/>
<path class="st1" d="M1036.7,227.5c-130.9,16.1-224,135.2-207.9,266.2S964,717.7,1095,701.6c130.9-16.1,224-135.2,207.9-266.2
	C1286.8,304.6,1167.7,211.5,1036.7,227.5z M822.7,494.5c-16.5-134.3,79-256.5,213.3-273c134.4-16.5,256.5,79,273,213.3
	c16.5,134.3-79,256.5-213.3,273C961.4,724.2,839.1,628.7,822.7,494.5z"/>
<path class="st2" d="M846.2,490.5c-15-121.8,71.7-232.7,193.5-247.7c121.8-15,232.7,71.7,247.7,193.5S1215.7,669,1093.9,684
	C972.1,699,861.2,612.4,846.2,490.5z"/>
<path class="st3" d="M301,319.1C169.7,335.3,76.4,454.7,92.5,585.9s135.6,224.6,266.8,208.4c131.3-16.1,224.6-135.6,208.4-266.8
	C551.6,396.4,432.2,303,301,319.1z M86.4,586.7c-16.5-134.6,79.2-257.1,213.8-273.7c134.7-16.5,257.1,79.2,273.7,213.8
	C590.4,661.5,494.6,784,360,800.5S102.9,721.3,86.4,586.7z"/>
<path class="st2" d="M110,583.7C95,461.8,181.7,350.9,303.5,336c121.8-15,232.7,71.7,247.7,193.5s-71.7,232.7-193.5,247.7
	S124.9,705.5,110,583.7z"/>
<path class="st4" d="M633.4,516.6L493,188.1L920.6,115"/>
<path class="st5" d="M627.2,509.5L945.4,175"/>
<path class="st6" d="M920.9,115.5l-15.3-45.9"/>
<path id="SVGID_x5F_1_x5F_" class="st7" d="M932.7,621.3c-86.6-74.4-96.5-204.8-22.1-291.3c74.3-86.5,204.8-96.4,291.3-22.1
	s96.4,204.8,22.1,291.3C1149.7,685.7,1019.2,695.6,932.7,621.3z"/>
<text transform="matrix(0.6836 -0.7299 0.7299 0.6836 915.4849 324.5005)" class="st8 st9"> </text>
<text transform="matrix(0.7474 -0.6644 0.6644 0.7474 917.2761 321.5417)" class="st10 st11 st12">G</text>
<text transform="matrix(0.84 -0.5426 0.5426 0.84 943.3395 298.7)" class="st10 st11 st12">E</text>
<text transform="matrix(0.9107 -0.413 0.413 0.9107 967.0488 283.2082)" class="st10 st11 st12">R</text>
<text transform="matrix(0.9693 -0.2458 0.2458 0.9693 996.5171 269.4493)" class="st10 st11 st12">M</text>
<text transform="matrix(0.9977 -6.749691e-02 6.749691e-02 0.9977 1036.2614 259.6857)" class="st10 st11 st12">A</text>
<text transform="matrix(0.9951 9.837200e-02 -9.837200e-02 0.9951 1070.5602 257.3531)" class="st10 st11 st12">N</text>
<text transform="matrix(0.9659 0.2588 -0.2588 0.9659 1105.1665 260.858)" class="st10 st11 st12">Y</text>
<text class="st8 st9"> </text>
<path class="st6" d="M1067.3,462.4L934.4,150.6L921,115.2"/>
<path class="st6" d="M472.3,142.2l43.3,102.6"/>
<path class="st13" d="M420.9,145.1L521.1,126"/>
<path class="st13" d="M956.6,109.3c12.7-1.6,20-1.5,32.6-4l0,0c42.2-8.3,20.4-56.1-21.9-48.9c-18.8,3.2-39.2,6.5-62.5,10"/>
<path id="SVGID_x5F_00000121995854275375123960000013671518932303548597_x5F_" class="st7" d="M124.1,562.1
	c-3.1-114.1,87-209,201-212c114-3.1,209,87,212,201s-87,209-201,212S127.1,676.1,124.1,562.1z"/>
<text transform="matrix(0.9999 1.589992e-02 -1.589992e-02 0.9999 332.4641 350.0222)" class="st8 st9"> </text>
<text transform="matrix(0.9942 0.1072 -0.1072 0.9942 335.8551 349.3596)" class="st10 st11 st12">G</text>
<text transform="matrix(0.9662 0.2577 -0.2577 0.9662 370.2941 353.3208)" class="st10 st11 st12">E</text>
<text transform="matrix(0.9177 0.3974 -0.3974 0.9177 397.6967 360.4787)" class="st10 st11 st12">R</text>
<text transform="matrix(0.8331 0.5531 -0.5531 0.8331 427.6826 373.0703)" class="st10 st11 st12">M</text>
<text transform="matrix(0.72 0.694 -0.694 0.72 461.6082 395.9632)" class="st10 st11 st12">A</text>
<text transform="matrix(0.5953 0.8035 -0.8035 0.5953 486.3693 419.8122)" class="st10 st11 st12">N</text>
<text transform="matrix(0.4568 0.8896 -0.8896 0.4568 507.0106 447.811)" class="st10 st11 st12">Y</text>
<text class="st8 st9"> </text>
<path class="st4" d="M508.1,228.9l125,287.7l-302,37.1L508.1,228.9z"/>
<path id="SVGID_x5F_00000005253445004937099490000008662401006601190054_x5F_" class="st7" d="M537.1,551.1
	c3.1,114.1-87,209-201,212c-114,3.1-209-87-212-201c-3.1-114,87-209,201-212C439.1,347,534.1,437.1,537.1,551.1z"/>
<text transform="matrix(-0.9999 -1.597296e-02 1.597296e-02 -0.9999 328.7203 763.1771)" class="st8 st9"> </text>
<text transform="matrix(-0.9942 -0.1073 0.1073 -0.9942 325.3292 763.8393)" class="st10 st11 st12">G</text>
<text transform="matrix(-0.9662 -0.2578 0.2578 -0.9662 290.8904 759.8755)" class="st10 st11 st12">E</text>
<text transform="matrix(-0.9176 -0.3974 0.3974 -0.9176 263.4886 752.7156)" class="st10 st11 st12">R</text>
<text transform="matrix(-0.8331 -0.5532 0.5532 -0.8331 233.5035 740.1232)" class="st10 st11 st12">M</text>
<text transform="matrix(-0.7199 -0.694 0.694 -0.7199 199.5795 717.2284)" class="st10 st11 st12">A</text>
<text transform="matrix(-0.5953 -0.8035 0.8035 -0.5953 174.8205 693.3763)" class="st10 st11 st12">N</text>
<text transform="matrix(-0.4567 -0.8896 0.8896 -0.4567 154.1818 665.3768)" class="st10 st11 st12">Y</text>
<text class="st8 st9"> </text>
<path id="SVGID_x5F_00000093171753803767621750000009907437264100558493_x5F_" class="st7" d="M1201.9,307.9
	c86.6,74.4,96.5,204.8,22.1,291.3c-74.3,86.5-204.8,96.4-291.3,22.1S836.3,416.5,910.6,330S1115.4,233.5,1201.9,307.9z"/>
<text transform="matrix(-0.6836 0.7298 -0.7298 -0.6836 1219.1091 604.7061)" class="st8 st9"> </text>
<text transform="matrix(-0.7474 0.6643 -0.6643 -0.7474 1217.3179 607.6647)" class="st10 st11 st12">G</text>
<text transform="matrix(-0.84 0.5426 -0.5426 -0.84 1191.2534 630.5055)" class="st10 st11 st12">E</text>
<text transform="matrix(-0.9107 0.413 -0.413 -0.9107 1167.5435 645.9965)" class="st10 st11 st12">R</text>
<text transform="matrix(-0.9693 0.2458 -0.2458 -0.9693 1138.0753 659.7529)" class="st10 st11 st12">M</text>
<text transform="matrix(-0.9977 6.745641e-02 -6.745641e-02 -0.9977 1098.3295 669.5149)" class="st10 st11 st12">A</text>
<text transform="matrix(-0.9951 -9.841283e-02 9.841283e-02 -0.9951 1064.032 671.8478)" class="st10 st11 st12">N</text>
<text transform="matrix(-0.9659 -0.2589 0.2589 -0.9659 1029.4254 668.3408)" class="st10 st11 st12">Y</text>
<text class="st8 st9"> </text>
</svg>
