<?xml version="1.0" encoding="utf-8"?>
<!-- Generator: Adobe Illustrator 26.0.2, SVG Export Plug-In . SVG Version: 6.00 Build 0)  -->
<svg version="1.1" id="Layer_1" xmlns="http://www.w3.org/2000/svg" xmlns:xlink="http://www.w3.org/1999/xlink" x="0px" y="0px"
	 viewBox="0 0 1170 895" style="enable-background:new 0 0 1170 895;" xml:space="preserve">
<style type="text/css">
	.st0{fill-rule:evenodd;clip-rule:evenodd;fill:#FF4444;}
	.st1{fill-rule:evenodd;clip-rule:evenodd;stroke:#000000;stroke-width:7.0847;}
	.st2{fill:none;stroke:#FF4444;stroke-width:41.5562;}
	.st3{fill-rule:evenodd;clip-rule:evenodd;stroke:#000000;stroke-width:7.102;}
	.st4{fill:none;stroke:#FFD913;stroke-width:22.726;stroke-linejoin:round;}
	.st5{fill:none;stroke:#FFD913;stroke-width:40.9069;stroke-linejoin:round;}
	.st6{fill:none;stroke:#FFD913;stroke-width:22.726;stroke-linecap:round;}
	.st7{fill:none;}
	.st8{font-family:'ArialMT';}
	.st9{font-size:12.0004px;}
	.st10{enable-background:new    ;}
	.st11{fill:#FFFFFF;}
	.st12{font-size:12px;}
	.st13{fill:none;stroke:#FF4444;stroke-width:22.726;stroke-linecap:round;}
</style>
<path class="st0" d="M1075.6,219.6l-7.9,238.6l58.8-231.5l-57.6,231.8l105.9-214.2L1070,459l148.4-187.6l-147.5,188.4L1255.3,307
	l-183.6,153.7L1284,349.4l-211.8,112.4l231-65L1072.5,463l239.6-15.8l-239.5,17l237.7,34.1l-237.8-32.9l225.4,82.5l-225.8-81.3
	l203.2,127.2l-203.9-126.2l172.2,166.5l-173.1-165.6l133.7,198.4L1069.6,469l89.3,221.7l-90.4-221.2l41,235.3l-42.2-235.1
	l-9.1,238.6l7.9-238.6l-58.8,231.5l57.6-231.8L959,683.6l104.8-214.8L915.4,656.4L1062.9,468L878.4,620.9L1062,467.2L849.7,578.5
	l211.8-112.4l-231,65l230.7-66.2l-239.6,15.8l239.5-17l-237.7-34.1l237.8,32.9L835.8,380l225.8,81.3L858.4,334.2l203.9,126.2
	L890.1,293.9l173.1,165.6L929.5,261.1l134.7,197.7l-89.3-221.7l90.4,221.2l-41-235.3l42.2,235.1L1075.6,219.6z"/>
<path class="st0" d="M337.3,309.2l-5.4,238.7l56.4-232.1L333,548.2l103.7-215.3L334.1,548.7l146.5-189.2L335.1,549.4l182.8-154.7
	l-182,155.6l211.2-113.5L336.5,551.4L566.8,484l-230,68.5l239.4-18.3l-239.3,19.5l238,31.6l-238.2-30.4L563,635.1l-226.6-79
	L541,681.2L335.7,557.1l173.9,164.7L334.9,558l135.7,197L333.9,558.7l91.6,220.7l-92.7-220.3L376.2,794l-44.6-234.6L324.9,798
	l5.4-238.7L274,791.4L329.2,559L225.5,774.3l102.6-215.8L181.6,747.7l145.5-189.9L144.3,712.5l182-155.6L115.2,670.4l210.6-114.6
	L95.4,623.2l230-68.5L86,573l239.3-19.5l-238-31.6l238.2,30.4L99.3,472.2l226.6,79L121.3,426l205.2,124.1L152.6,385.5l174.8,163.8
	l-135.7-197l136.7,196.3l-91.6-220.7l92.7,220.3l-43.4-234.8L330.7,548L337.3,309.2z"/>
<path class="st1" d="M1036.7,227.5c-130.9,16.1-224,135.2-207.9,266.2S964,717.7,1095,701.6c130.9-16.1,224-135.2,207.9-266.2
	C1286.8,304.6,1167.7,211.5,1036.7,227.5z M822.7,494.5c-16.5-134.3,79-256.5,213.3-273c134.4-16.5,256.5,79,273,213.3
	s-79,256.5-213.3,273C961.4,724.2,839.1,628.7,822.7,494.5z"/>
<path class="st2" d="M846.2,490.5c-15-121.8,71.7-232.7,193.5-247.7c121.8-15,232.7,71.7,247.7,193.5S1215.7,669,1093.9,684
	C972.1,699,861.2,612.4,846.2,490.5z"/>
<path class="st3" d="M301,319.1C169.7,335.3,76.4,454.7,92.5,585.9s135.6,224.6,266.8,208.4c131.3-16.1,224.6-135.6,208.4-266.8
	C551.6,396.4,432.2,303,301,319.1z M86.4,586.7C69.9,452.1,165.6,329.6,300.2,313c134.7-16.5,257.1,79.2,273.7,213.8
	C590.4,661.5,494.6,784,360,800.5S102.9,721.3,86.4,586.7z"/>
<path class="st2" d="M110,583.7C95,461.8,181.7,350.9,303.5,336c121.8-15,232.7,71.7,247.7,193.5s-71.7,232.7-193.5,247.7
	S124.9,705.5,110,583.7z"/>
<path class="st4" d="M633.4,516.6L493,188.1L920.6,115"/>
<path class="st5" d="M627.2,509.5L945.4,175"/>
<path class="st6" d="M920.9,115.5l-15.3-45.9"/>
<path id="SVGID_x5F_1_x5F_" class="st7" d="M932.7,621.3c-86.6-74.4-96.5-204.8-22.1-291.3c74.3-86.5,204.8-96.4,291.3-22.1
	s96.4,204.8,22.1,291.3C1149.7,685.7,1019.2,695.6,932.7,621.3z"/>
<text transform="matrix(0.6836 -0.7299 0.7299 0.6836 915.4847 324.501)" class="st8 st9"> </text>
<g class="st10">
	<path class="st11" d="M917.9,297.1l12.6-11.2c3.8,3.6,5.8,7.7,5.9,12.4c0.1,4.7-1.8,8.8-5.7,12.3c-3.6,3.2-7.5,4.6-11.8,4.3
		c-4.3-0.3-8-2.2-11-5.6c-3-3.4-4.5-7.3-4.4-11.7c0.1-4.3,2-8.1,5.7-11.4c2.9-2.6,6.2-4.1,9.7-4.3c3.5-0.3,6.7,0.6,9.6,2.7l-6.4,5.7
		c-1.3-0.6-2.6-0.7-4-0.4c-1.4,0.3-2.7,1-3.9,2.1c-1.9,1.8-2.9,3.8-2.9,6c0,2.2,0.8,4.2,2.4,6c1.6,1.8,3.6,2.9,5.8,3.1
		c2.3,0.2,4.4-0.5,6.4-2.3c1.4-1.2,2.3-2.5,2.8-4c0.5-1.4,0.5-2.8,0.1-4.3l-6.3,5.6L917.9,297.1z"/>
</g>
<g class="st10">
	<path class="st11" d="M965.8,284.2l-20.4,13.2l-16.9-26.2l20.4-13.2l4,6.2l-13.9,9l2.4,3.7l12-7.7l3.8,5.9l-12,7.7l2.6,4.1l13.9-9
		L965.8,284.2z"/>
</g>
<g class="st10">
	<path class="st11" d="M976.3,279l-7,3.2l-12.9-28.4l14.6-6.6c3-1.4,5.8-1.8,8.2-1.3c2.4,0.5,4.2,2.1,5.4,4.6
		c1.2,2.7,1.2,5.1-0.1,7.3l0.1,0.2c2.7-0.5,4.7,0.8,6.1,3.8l4,8.8l-7,3.2l-3.4-7.6c-0.5-1-1.2-1.3-2.3-0.8l-9.9,4.5L976.3,279z
		 M966.5,257.4l2.8,6.3l7.1-3.2c1.1-0.5,1.9-1.2,2.3-2.1c0.4-0.9,0.4-1.8-0.1-2.8c-0.4-1-1.1-1.6-2-1.8s-1.9-0.1-3,0.4L966.5,257.4z
		"/>
</g>
<g class="st10">
	<path class="st11" d="M1026,229.8l7.7,30.2l-7.4,1.9l-4.9-19.2l-2.9,21.2l-4.3,1.1l-12.7-17.2l4.9,19.2l-7.4,1.9l-7.7-30.2
		l10.3-2.6l11.6,16.1l2.6-19.7L1026,229.8z"/>
</g>
<g class="st10">
	<path class="st11" d="M1070.1,257.4l-8.7,0.6l-2.6-5.6l-12.1,0.8l-1.7,5.9l-8.3,0.6l10.3-31.9l8.6-0.6L1070.1,257.4z M1051.7,236.8
		l-2.9,9.7l7.1-0.5L1051.7,236.8z"/>
</g>
<g class="st10">
	<path class="st11" d="M1096.2,247.6l1.9-18.8l7.6,0.8l-3.1,31l-7.6-0.8l-12.3-21.2l-2,19.8l-7.6-0.8l3.1-31l8.5,0.8L1096.2,247.6z"
		/>
</g>
<g class="st10">
	<path class="st11" d="M1136.3,237l8.2,2.2l-16.9,16l-2.9,11l-7.4-2l2.9-10.9l-6.7-22.3l8.4,2.2l3.9,14L1136.3,237z"/>
</g>
<text class="st8 st12"> </text>
<path class="st6" d="M1067.3,462.4L934.4,150.6L921,115.2"/>
<path class="st6" d="M472.3,142.2l43.3,102.6"/>
<path class="st13" d="M420.9,145.1L521.1,126"/>
<path class="st13" d="M956.6,109.3c12.7-1.6,20-1.5,32.6-4l0,0c42.2-8.3,20.4-56.1-21.9-48.9c-18.8,3.2-39.2,6.5-62.5,10"/>
<path id="SVGID_x5F_00000121995854275375123960000013671518932303548597_x5F_" class="st7" d="M124.1,562.1
	c-3.1-114.1,87-209,201-212c114-3.1,209,87,212,201s-87,209-201,212S127.1,676.1,124.1,562.1z"/>
<text transform="matrix(0.9999 1.589992e-02 -1.589992e-02 0.9999 332.4641 350.0222)" class="st8 st12"> </text>
<g class="st10">
	<path class="st11" d="M354.4,333.4l16.8,1.8c-0.1,5.2-1.8,9.5-5.3,12.7c-3.5,3.2-7.8,4.6-12.9,4c-4.7-0.5-8.4-2.5-11.1-5.9
		c-2.7-3.4-3.7-7.4-3.2-11.9c0.5-4.6,2.4-8.2,5.7-11.1c3.3-2.8,7.4-4,12.2-3.4c3.9,0.4,7.1,1.8,9.7,4.3s4.1,5.4,4.5,8.9l-8.5-0.9
		c-0.4-1.3-1.2-2.4-2.3-3.2c-1.1-0.8-2.5-1.3-4.2-1.5c-2.6-0.2-4.7,0.4-6.4,1.9c-1.7,1.5-2.6,3.4-2.9,5.8c-0.3,2.4,0.3,4.6,1.6,6.4
		c1.3,1.8,3.3,2.9,5.9,3.2c1.8,0.2,3.4,0,4.8-0.6c1.4-0.6,2.5-1.5,3.2-2.8l-8.3-0.9L354.4,333.4z"/>
</g>
<g class="st10">
	<path class="st11" d="M396.2,360.2l-23.4-6.3l8-30.1l23.4,6.3l-1.9,7.2l-16-4.3l-1.1,4.3l13.8,3.7l-1.8,6.7l-13.8-3.7l-1.2,4.7
		l16,4.3L396.2,360.2z"/>
</g>
<g class="st10">
	<path class="st11" d="M407,364.5l-7-3l12.4-28.6l14.8,6.4c3.1,1.3,5.2,3.1,6.5,5.3c1.2,2.2,1.3,4.5,0.2,7.1c-1.2,2.7-3,4.3-5.4,4.8
		l-0.1,0.2c2.2,1.7,2.6,4,1.3,7.1l-3.8,8.9l-7-3l3.3-7.6c0.5-1.1,0.1-1.8-0.9-2.3l-10-4.3L407,364.5z M416.5,342.8l-2.7,6.3l7.1,3.1
		c1.1,0.5,2.2,0.6,3.1,0.3c0.9-0.3,1.6-0.9,2-2c0.4-1,0.4-1.9,0-2.7c-0.4-0.8-1.2-1.5-2.3-2L416.5,342.8z"/>
</g>
<g class="st10">
	<path class="st11" d="M476.8,368.3l-17.2,25.9l-6.4-4.2l11-16.5l-17.6,12l-3.7-2.4l4.3-20.9l-11,16.5l-6.4-4.2l17.2-25.9l8.9,5.9
		l-4.2,19.4l16.3-11.3L476.8,368.3z"/>
</g>
<g class="st10">
	<path class="st11" d="M486,419.5l-6.3-6l2.4-5.7l-8.7-8.4l-5.5,2.7l-6-5.8l30.5-13.8l6.2,6L486,419.5z M488.9,392l-9.1,4.4l5.2,5
		L488.9,392z"/>
</g>
<g class="st10">
	<path class="st11" d="M510.8,432.2L526,421l4.6,6.2l-25,18.5l-4.6-6.2l7.4-23.4l-16,11.8l-4.6-6.2l25-18.5l5.1,6.8L510.8,432.2z"/>
</g>
<g class="st10">
	<path class="st11" d="M545.6,454.8l3.9,7.6l-23.2-1.8l-10.1,5.2l-3.5-6.8l10-5.2l12.1-19.9l4,7.7l-7.8,12.3L545.6,454.8z"/>
</g>
<text class="st8 st12"> </text>
<path class="st4" d="M508.1,228.9l125,287.7l-302,37.1L508.1,228.9z"/>
<path id="SVGID_x5F_00000005253445004937099490000008662401006601190054_x5F_" class="st7" d="M537.1,551.1
	c3.1,114.1-87,209-201,212c-114,3.1-209-87-212-201c-3.1-114,87-209,201-212C439.1,347,534.1,437.1,537.1,551.1z"/>
<text transform="matrix(-0.9999 -1.597296e-02 1.597296e-02 -0.9999 328.7207 763.1763)" class="st8 st12"> </text>
<g class="st10">
	<path class="st11" d="M306.8,779.8l-16.8-1.8c0.1-5.2,1.8-9.5,5.3-12.7c3.5-3.2,7.8-4.6,12.9-4c4.7,0.5,8.4,2.5,11.1,5.9
		c2.7,3.4,3.7,7.4,3.2,11.9c-0.5,4.6-2.4,8.2-5.7,11.1c-3.3,2.8-7.4,4-12.2,3.4c-3.9-0.4-7.1-1.8-9.7-4.3c-2.6-2.4-4.1-5.4-4.5-8.9
		l8.5,0.9c0.4,1.3,1.2,2.4,2.3,3.2c1.1,0.8,2.5,1.3,4.2,1.5c2.6,0.2,4.7-0.4,6.4-1.9c1.7-1.5,2.6-3.4,2.9-5.8
		c0.3-2.4-0.3-4.6-1.6-6.4c-1.3-1.8-3.3-2.9-5.9-3.2c-1.8-0.2-3.4,0-4.8,0.6c-1.4,0.6-2.5,1.5-3.2,2.8l8.3,0.9L306.8,779.8z"/>
</g>
<g class="st10">
	<path class="st11" d="M265,753l23.4,6.3l-8,30.1l-23.4-6.3l1.9-7.2l16,4.3l1.2-4.3l-13.8-3.7l1.8-6.7l13.8,3.7l1.2-4.7l-16-4.3
		L265,753z"/>
</g>
<g class="st10">
	<path class="st11" d="M254.1,748.7l7,3l-12.4,28.6l-14.8-6.4c-3.1-1.3-5.2-3.1-6.5-5.3c-1.2-2.2-1.3-4.5-0.2-7.1
		c1.2-2.7,3-4.3,5.4-4.8l0.1-0.2c-2.2-1.7-2.6-4-1.3-7.1l3.8-8.9l7,3l-3.3,7.6c-0.5,1.1-0.1,1.8,0.9,2.3l10,4.3L254.1,748.7z
		 M244.7,770.4l2.7-6.3l-7.1-3.1c-1.1-0.5-2.2-0.6-3.1-0.3c-0.9,0.3-1.6,0.9-2,2c-0.4,1-0.4,1.9,0,2.7c0.4,0.8,1.2,1.5,2.3,2
		L244.7,770.4z"/>
</g>
<g class="st10">
	<path class="st11" d="M184.3,744.9l17.2-25.9l6.4,4.2l-11,16.5l17.7-12l3.7,2.4l-4.3,20.9l11-16.5l6.4,4.2l-17.2,25.9l-8.9-5.9
		l4.2-19.4l-16.3,11.3L184.3,744.9z"/>
</g>
<g class="st10">
	<path class="st11" d="M175.2,693.7l6.3,6l-2.4,5.7l8.7,8.4l5.5-2.7l6,5.8l-30.5,13.8l-6.2-6L175.2,693.7z M172.3,721.1l9.1-4.4
		l-5.2-5L172.3,721.1z"/>
</g>
<g class="st10">
	<path class="st11" d="M150.4,681l-15.2,11.2l-4.6-6.2l25-18.5l4.6,6.2l-7.4,23.4l16-11.8l4.6,6.2l-25,18.5l-5.1-6.8L150.4,681z"/>
</g>
<g class="st10">
	<path class="st11" d="M115.6,658.3l-3.9-7.6l23.2,1.8l10.1-5.2l3.5,6.8l-10,5.2l-12.1,19.9l-4-7.7l7.8-12.3L115.6,658.3z"/>
</g>
<text class="st8 st12"> </text>
<path id="SVGID_x5F_00000093171753803767621750000009907437264100558493_x5F_" class="st7" d="M1201.9,307.9
	c86.6,74.4,96.5,204.8,22.1,291.3c-74.3,86.5-204.8,96.4-291.3,22.1S836.3,416.5,910.6,330S1115.4,233.5,1201.9,307.9z"/>
<text transform="matrix(-0.6836 0.7298 -0.7298 -0.6836 1219.1088 604.7064)" class="st8" style="font-size:11.9995px;"> </text>
<g class="st10">
	<path class="st11" d="M1216.7,632.1l-12.6,11.2c-3.8-3.6-5.8-7.7-5.9-12.4c-0.1-4.7,1.8-8.8,5.7-12.3c3.6-3.2,7.5-4.6,11.8-4.3
		c4.3,0.3,8,2.2,11,5.6s4.5,7.3,4.4,11.7c-0.1,4.3-2,8.1-5.7,11.4c-2.9,2.6-6.2,4.1-9.7,4.3c-3.5,0.3-6.7-0.6-9.6-2.7l6.4-5.7
		c1.3,0.6,2.6,0.7,4,0.4c1.4-0.3,2.7-1,3.9-2.1c1.9-1.8,2.9-3.8,2.9-6c0-2.2-0.8-4.2-2.4-6c-1.6-1.8-3.6-2.9-5.8-3.1
		c-2.3-0.2-4.4,0.5-6.4,2.3c-1.4,1.2-2.3,2.5-2.8,4c-0.5,1.4-0.5,2.8-0.1,4.3l6.3-5.6L1216.7,632.1z"/>
</g>
<g class="st10">
	<path class="st11" d="M1168.8,645l20.4-13.2L1206,658l-20.4,13.2l-4-6.2l13.9-9l-2.4-3.7l-12,7.7l-3.8-5.9l12-7.7l-2.6-4.1l-13.9,9
		L1168.8,645z"/>
</g>
<g class="st10">
	<path class="st11" d="M1158.3,650.2l7-3.2l12.9,28.4l-14.6,6.6c-3,1.4-5.8,1.8-8.2,1.3c-2.4-0.5-4.2-2.1-5.4-4.6
		c-1.2-2.7-1.2-5.1,0.1-7.3l-0.1-0.2c-2.7,0.5-4.7-0.8-6.1-3.8l-4-8.8l7-3.2l3.4,7.6c0.5,1,1.2,1.3,2.3,0.8l9.9-4.5L1158.3,650.2z
		 M1168.1,671.8l-2.8-6.3l-7.1,3.2c-1.1,0.5-1.9,1.2-2.3,2.1c-0.4,0.9-0.4,1.8,0.1,2.8c0.4,1,1.1,1.6,2,1.8c0.9,0.2,1.9,0.1,3-0.4
		L1168.1,671.8z"/>
</g>
<g class="st10">
	<path class="st11" d="M1108.6,699.4l-7.7-30.2l7.4-1.9l4.9,19.2l2.9-21.2l4.3-1.1l12.7,17.2l-4.9-19.2l7.4-1.9l7.7,30.2l-10.3,2.6
		l-11.6-16.1l-2.6,19.7L1108.6,699.4z"/>
</g>
<g class="st10">
	<path class="st11" d="M1064.5,671.8l8.7-0.6l2.6,5.6l12.1-0.8l1.7-5.9l8.3-0.6l-10.3,31.9l-8.6,0.6L1064.5,671.8z M1082.9,692.4
		l2.9-9.7l-7.1,0.5L1082.9,692.4z"/>
</g>
<g class="st10">
	<path class="st11" d="M1038.4,681.6l-1.9,18.8l-7.6-0.8l3.1-31l7.6,0.8l12.3,21.2l2-19.8l7.6,0.8l-3.1,31l-8.5-0.8L1038.4,681.6z"
		/>
</g>
<g class="st10">
	<path class="st11" d="M998.3,692.2l-8.2-2.2l16.9-16l2.9-11l7.4,2l-2.9,10.9l6.7,22.3l-8.4-2.2l-3.9-14L998.3,692.2z"/>
</g>
<text class="st8 st12"> </text>
</svg>
